<?xml version="1.0" encoding="UTF-8" standalone="no"?>
<!DOCTYPE svg PUBLIC "-//W3C//DTD SVG 1.1//EN"
 "http://www.w3.org/Graphics/SVG/1.1/DTD/svg11.dtd">
<!-- Generated by graphviz version 2.40.1 (20161225.0304)
 -->
<!-- Title: Core Pages: 1 -->
<svg width="296pt" height="95pt"
 viewBox="0.00 0.00 296.00 95.00" xmlns="http://www.w3.org/2000/svg" xmlns:xlink="http://www.w3.org/1999/xlink">
<g id="graph0" class="graph" transform="scale(1 1) rotate(0) translate(4 91)">
<title>Core</title>
<polygon fill="#ffffff" stroke="transparent" points="-4,4 -4,-91 292,-91 292,4 -4,4"/>
<g id="clust1" class="cluster">
<title>cluster_Tool_0</title>
<polygon fill="none" stroke="#000000" points="8,-8 8,-79 280,-79 280,-8 8,-8"/>
<text text-anchor="middle" x="144" y="-67" font-family="Helvetica Neue, Helvetica, Arial, sans-serif" font-size="10.00" fill="#000000">Tool (configuration/command&#45;line, logging, provenance)</text>
</g>
<!-- Container_1 -->
<g id="node1" class="node">
<title>Container_1</title>
<ellipse fill="none" stroke="#000000" cx="144" cy="-34" rx="41.5911" ry="18"/>
<text text-anchor="middle" x="144" y="-31.5" font-family="Helvetica Neue, Helvetica, Arial, sans-serif" font-size="10.00" fill="#000000">Container_1</text>
</g>
<!-- Component_2 -->
<g id="node3" class="node">
<title>Component_2</title>
<polygon fill="#1874cd" stroke="#000000" points="272,-52 204,-52 204,-16 272,-16 272,-52"/>
<text text-anchor="middle" x="238" y="-31.5" font-family="Helvetica Neue, Helvetica, Arial, sans-serif" font-size="10.00" fill="#ffffff">Component</text>
</g>
<!-- Container_1&#45;&gt;Component_2 -->
<g id="edge2" class="edge">
<title>Container_1&#45;&gt;Component_2</title>
<path fill="none" stroke="#000000" d="M185.8594,-34C188.4732,-34 191.087,-34 193.7008,-34"/>
<polygon fill="#000000" stroke="#000000" points="193.7827,-37.5001 203.7827,-34 193.7827,-30.5001 193.7827,-37.5001"/>
</g>
<!-- Component_1 -->
<g id="node2" class="node">
<title>Component_1</title>
<polygon fill="#1874cd" stroke="#000000" points="84,-52 16,-52 16,-16 84,-16 84,-52"/>
<text text-anchor="middle" x="50" y="-31.5" font-family="Helvetica Neue, Helvetica, Arial, sans-serif" font-size="10.00" fill="#ffffff">Component</text>
</g>
<!-- Component_1&#45;&gt;Container_1 -->
<g id="edge1" class="edge">
<title>Component_1&#45;&gt;Container_1</title>
<path fill="none" stroke="#000000" d="M84.1484,-34C86.6471,-34 89.1458,-34 91.6445,-34"/>
<polygon fill="#000000" stroke="#000000" points="91.9169,-37.5001 101.9169,-34 91.9168,-30.5001 91.9169,-37.5001"/>
</g>
</g>
</svg>
