<?xml version="1.0" encoding="UTF-8" standalone="no"?>
<!DOCTYPE svg PUBLIC "-//W3C//DTD SVG 1.1//EN"
 "http://www.w3.org/Graphics/SVG/1.1/DTD/svg11.dtd">
<!-- Generated by graphviz version 2.40.1 (20161225.0304)
 -->
<!-- Title: inheritance31206b1faf Pages: 1 -->
<svg width="576pt" height="115pt"
 viewBox="0.00 0.00 576.00 114.61" xmlns="http://www.w3.org/2000/svg" xmlns:xlink="http://www.w3.org/1999/xlink">
<g id="graph0" class="graph" transform="scale(.7347 .7347) rotate(0) translate(4 152)">
<title>inheritance31206b1faf</title>
<polygon fill="#ffffff" stroke="transparent" points="-4,4 -4,-152 780,-152 780,4 -4,4"/>
<!-- Application -->
<g id="node1" class="node">
<title>Application</title>
<g id="a_node1"><a xlink:title="A singleton application with full configuration support.">
<polygon fill="none" stroke="#000000" stroke-width=".5" points="686,-19 621,-19 621,0 686,0 686,-19"/>
<text text-anchor="middle" x="653.5" y="-7" font-family="Vera Sans, DejaVu Sans, Liberation Sans, Arial, Helvetica, sans" font-size="10.00" fill="#000000">Application</text>
</a>
</g>
</g>
<!-- Tool -->
<g id="node12" class="node">
<title>Tool</title>
<g id="a_node12"><a xlink:href="../../api/ctapipe.core.Tool.html#ctapipe.core.Tool" xlink:title="A base class for all executable tools (applications) that handles" target="_top">
<polygon fill="none" stroke="#000000" stroke-width=".5" points="776,-19 722,-19 722,0 776,0 776,-19"/>
<text text-anchor="middle" x="749" y="-7" font-family="Vera Sans, DejaVu Sans, Liberation Sans, Arial, Helvetica, sans" font-size="10.00" fill="#000000">Tool</text>
</a>
</g>
</g>
<!-- Application&#45;&gt;Tool -->
<g id="edge8" class="edge">
<title>Application&#45;&gt;Tool</title>
<path fill="none" stroke="#000000" stroke-width=".5" d="M686.0986,-9.5C696.0375,-9.5 706.9535,-9.5 716.8618,-9.5"/>
<polygon fill="#000000" stroke="#000000" stroke-width=".5" points="716.9408,-11.2501 721.9408,-9.5 716.9408,-7.7501 716.9408,-11.2501"/>
</g>
<!-- SingletonConfigurable -->
<g id="node2" class="node">
<title>SingletonConfigurable</title>
<g id="a_node2"><a xlink:title="A configurable that only allows one instance.">
<polygon fill="none" stroke="#000000" stroke-width=".5" points="585,-19 470,-19 470,0 585,0 585,-19"/>
<text text-anchor="middle" x="527.5" y="-7" font-family="Vera Sans, DejaVu Sans, Liberation Sans, Arial, Helvetica, sans" font-size="10.00" fill="#000000">SingletonConfigurable</text>
</a>
</g>
</g>
<!-- SingletonConfigurable&#45;&gt;Application -->
<g id="edge1" class="edge">
<title>SingletonConfigurable&#45;&gt;Application</title>
<path fill="none" stroke="#000000" stroke-width=".5" d="M585.3372,-9.5C595.5993,-9.5 606.0453,-9.5 615.5762,-9.5"/>
<polygon fill="#000000" stroke="#000000" stroke-width=".5" points="615.7701,-11.2501 620.7701,-9.5 615.77,-7.7501 615.7701,-11.2501"/>
</g>
<!-- Component -->
<g id="node3" class="node">
<title>Component</title>
<g id="a_node3"><a xlink:href="../../api/ctapipe.core.Component.html#ctapipe.core.Component" xlink:title="Base class of all Components (sometimes called" target="_top">
<polygon fill="none" stroke="#000000" stroke-width=".5" points="413.5,-56 345.5,-56 345.5,-37 413.5,-37 413.5,-56"/>
<text text-anchor="middle" x="379.5" y="-44" font-family="Vera Sans, DejaVu Sans, Liberation Sans, Arial, Helvetica, sans" font-size="10.00" fill="#000000">Component</text>
</a>
</g>
</g>
<!-- Configurable -->
<g id="node4" class="node">
<title>Configurable</title>
<polygon fill="none" stroke="#000000" stroke-width=".5" points="289,-37 216,-37 216,-18 289,-18 289,-37"/>
<text text-anchor="middle" x="252.5" y="-25" font-family="Vera Sans, DejaVu Sans, Liberation Sans, Arial, Helvetica, sans" font-size="10.00" fill="#000000">Configurable</text>
</g>
<!-- Configurable&#45;&gt;Component -->
<g id="edge2" class="edge">
<title>Configurable&#45;&gt;Component</title>
<path fill="none" stroke="#000000" stroke-width=".5" d="M289.2337,-32.9956C305.3,-35.3992 324.1645,-38.2215 340.4821,-40.6627"/>
<polygon fill="#000000" stroke="#000000" stroke-width=".5" points="340.2546,-42.398 345.4585,-41.4072 340.7725,-38.9366 340.2546,-42.398"/>
</g>
<!-- LoggingConfigurable -->
<g id="node9" class="node">
<title>LoggingConfigurable</title>
<g id="a_node9"><a xlink:title="A parent class for Configurables that log.">
<polygon fill="none" stroke="#000000" stroke-width=".5" points="434,-19 325,-19 325,0 434,0 434,-19"/>
<text text-anchor="middle" x="379.5" y="-7" font-family="Vera Sans, DejaVu Sans, Liberation Sans, Arial, Helvetica, sans" font-size="10.00" fill="#000000">LoggingConfigurable</text>
</a>
</g>
</g>
<!-- Configurable&#45;&gt;LoggingConfigurable -->
<g id="edge5" class="edge">
<title>Configurable&#45;&gt;LoggingConfigurable</title>
<path fill="none" stroke="#000000" stroke-width=".5" d="M289.2337,-22.2937C298.8029,-20.9374 309.3649,-19.4404 319.7901,-17.9628"/>
<polygon fill="#000000" stroke="#000000" stroke-width=".5" points="320.1871,-19.6741 324.892,-17.2397 319.6959,-16.2088 320.1871,-19.6741"/>
</g>
<!-- HasTraits -->
<g id="node5" class="node">
<title>HasTraits</title>
<polygon fill="none" stroke="#000000" stroke-width=".5" points="180,-37 121,-37 121,-18 180,-18 180,-37"/>
<text text-anchor="middle" x="150.5" y="-25" font-family="Vera Sans, DejaVu Sans, Liberation Sans, Arial, Helvetica, sans" font-size="10.00" fill="#000000">HasTraits</text>
</g>
<!-- HasTraits&#45;&gt;Configurable -->
<g id="edge3" class="edge">
<title>HasTraits&#45;&gt;Configurable</title>
<path fill="none" stroke="#000000" stroke-width=".5" d="M180.0026,-27.5C189.6096,-27.5 200.4622,-27.5 210.789,-27.5"/>
<polygon fill="#000000" stroke="#000000" stroke-width=".5" points="210.8085,-29.2501 215.8085,-27.5 210.8085,-25.7501 210.8085,-29.2501"/>
</g>
<!-- Container -->
<g id="node6" class="node">
<title>Container</title>
<g id="a_node6"><a xlink:href="../../api/ctapipe.core.Container.html#ctapipe.core.Container" xlink:title="Generic class that can hold and accumulate data to be passed" target="_top">
<polygon fill="none" stroke="#000000" stroke-width=".5" points="72.5,-74 12.5,-74 12.5,-55 72.5,-55 72.5,-74"/>
<text text-anchor="middle" x="42.5" y="-62" font-family="Vera Sans, DejaVu Sans, Liberation Sans, Arial, Helvetica, sans" font-size="10.00" fill="#000000">Container</text>
</a>
</g>
</g>
<!-- HasDescriptors -->
<g id="node7" class="node">
<title>HasDescriptors</title>
<g id="a_node7"><a xlink:title="The base class for all classes that have descriptors.">
<polygon fill="none" stroke="#000000" stroke-width=".5" points="85,-37 0,-37 0,-18 85,-18 85,-37"/>
<text text-anchor="middle" x="42.5" y="-25" font-family="Vera Sans, DejaVu Sans, Liberation Sans, Arial, Helvetica, sans" font-size="10.00" fill="#000000">HasDescriptors</text>
</a>
</g>
</g>
<!-- HasDescriptors&#45;&gt;HasTraits -->
<g id="edge4" class="edge">
<title>HasDescriptors&#45;&gt;HasTraits</title>
<path fill="none" stroke="#000000" stroke-width=".5" d="M85.1845,-27.5C95.2336,-27.5 105.8301,-27.5 115.496,-27.5"/>
<polygon fill="#000000" stroke="#000000" stroke-width=".5" points="115.7608,-29.2501 120.7608,-27.5 115.7607,-25.7501 115.7608,-29.2501"/>
</g>
<!-- Item -->
<g id="node8" class="node">
<title>Item</title>
<g id="a_node8"><a xlink:href="../../api/ctapipe.core.Item.html#ctapipe.core.Item" xlink:title="Defines the metadata associated with a value in a Container" target="_top">
<polygon fill="none" stroke="#000000" stroke-width=".5" points="69.5,-111 15.5,-111 15.5,-92 69.5,-92 69.5,-111"/>
<text text-anchor="middle" x="42.5" y="-99" font-family="Vera Sans, DejaVu Sans, Liberation Sans, Arial, Helvetica, sans" font-size="10.00" fill="#000000">Item</text>
</a>
</g>
</g>
<!-- LoggingConfigurable&#45;&gt;SingletonConfigurable -->
<g id="edge7" class="edge">
<title>LoggingConfigurable&#45;&gt;SingletonConfigurable</title>
<path fill="none" stroke="#000000" stroke-width=".5" d="M434.1892,-9.5C444.0061,-9.5 454.3104,-9.5 464.343,-9.5"/>
<polygon fill="#000000" stroke="#000000" stroke-width=".5" points="464.5606,-11.2501 469.5606,-9.5 464.5606,-7.7501 464.5606,-11.2501"/>
</g>
<!-- Map -->
<g id="node10" class="node">
<title>Map</title>
<g id="a_node10"><a xlink:href="../../api/ctapipe.core.Map.html#ctapipe.core.Map" xlink:title="A dictionary of sub&#45;containers that can be added to a Container. This" target="_top">
<polygon fill="none" stroke="#000000" stroke-width=".5" points="177.5,-148 123.5,-148 123.5,-129 177.5,-129 177.5,-148"/>
<text text-anchor="middle" x="150.5" y="-136" font-family="Vera Sans, DejaVu Sans, Liberation Sans, Arial, Helvetica, sans" font-size="10.00" fill="#000000">Map</text>
</a>
</g>
</g>
<!-- defaultdict -->
<g id="node11" class="node">
<title>defaultdict</title>
<g id="a_node11"><a xlink:title="defaultdict(default_factory[, ...]) &#45;&#45;&gt; dict with default factory">
<polygon fill="none" stroke="#000000" stroke-width=".5" points="73.5,-148 11.5,-148 11.5,-129 73.5,-129 73.5,-148"/>
<text text-anchor="middle" x="42.5" y="-136" font-family="Vera Sans, DejaVu Sans, Liberation Sans, Arial, Helvetica, sans" font-size="10.00" fill="#000000">defaultdict</text>
</a>
</g>
</g>
<!-- defaultdict&#45;&gt;Map -->
<g id="edge6" class="edge">
<title>defaultdict&#45;&gt;Map</title>
<path fill="none" stroke="#000000" stroke-width=".5" d="M73.7381,-138.5C87.7201,-138.5 104.1941,-138.5 118.2886,-138.5"/>
<polygon fill="#000000" stroke="#000000" stroke-width=".5" points="118.3647,-140.2501 123.3647,-138.5 118.3646,-136.7501 118.3647,-140.2501"/>
</g>
</g>
</svg>
